<svg xmlns="http://www.w3.org/2000/svg" version="1.1" xmlns:xlink="http://www.w3.org/1999/xlink" xmlns:svgjs="http://svgjs.dev/svgjs" viewBox="0 0 800 800"><defs><linearGradient x1="50%" y1="0%" x2="50%" y2="100%" id="ffflurry-grad" gradientTransform="rotate(270)"><stop stop-color="hsl(0, 0%, 0%)" stop-opacity="1" offset="0%"></stop><stop stop-color="hsl(184, 74%, 44%)" stop-opacity="1" offset="45%"></stop><stop stop-color="hsl(332, 87%, 70%)" stop-opacity="1" offset="100%"></stop></linearGradient></defs><rect width="100%" height="100%" fill="hsl(0, 0%, 0%)"></rect><g fill="url(#ffflurry-grad)"><rect width="470" height="3" x="160" y="312.5" rx="1.5" transform="rotate(45, 395, 314)" opacity="0.96"></rect><rect width="531" height="3" x="-19.5" y="547.5" rx="1.5" transform="rotate(45, 246, 549)" opacity="0.84"></rect><rect width="67" height="3" x="-9.5" y="189.5" rx="1.5" transform="rotate(45, 24, 191)" opacity="0.63"></rect><rect width="414" height="3" x="357" y="36.5" rx="1.5" transform="rotate(45, 564, 38)" opacity="0.42"></rect><rect width="471" height="3" x="265.5" y="604.5" rx="1.5" transform="rotate(45, 501, 606)" opacity="0.60"></rect><rect width="449" height="3" x="-67.5" y="256.5" rx="1.5" transform="rotate(45, 157, 258)" opacity="0.41"></rect><rect width="202" height="3" x="590" y="410.5" rx="1.5" transform="rotate(45, 691, 412)" opacity="0.93"></rect><rect width="90" height="3" x="-5" y="509.5" rx="1.5" transform="rotate(45, 40, 511)" opacity="0.39"></rect><rect width="257" height="3" x="149.5" y="270.5" rx="1.5" transform="rotate(45, 278, 272)" opacity="0.43"></rect><rect width="115" height="3" x="-31.5" y="404.5" rx="1.5" transform="rotate(45, 26, 406)" opacity="0.07"></rect><rect width="558" height="3" x="478" y="734.5" rx="1.5" transform="rotate(45, 757, 736)" opacity="0.73"></rect><rect width="325" height="3" x="187.5" y="764.5" rx="1.5" transform="rotate(45, 350, 766)" opacity="0.79"></rect><rect width="387" height="3" x="-97.5" y="424.5" rx="1.5" transform="rotate(45, 96, 426)" opacity="0.41"></rect><rect width="415" height="3" x="-30.5" y="51.5" rx="1.5" transform="rotate(45, 177, 53)" opacity="0.59"></rect><rect width="163" height="3" x="38.5" y="547.5" rx="1.5" transform="rotate(45, 120, 549)" opacity="0.48"></rect><rect width="332" height="3" x="-81" y="755.5" rx="1.5" transform="rotate(45, 85, 757)" opacity="0.98"></rect><rect width="559" height="3" x="188.5" y="757.5" rx="1.5" transform="rotate(45, 468, 759)" opacity="0.46"></rect><rect width="76" height="3" x="732" y="346.5" rx="1.5" transform="rotate(45, 770, 348)" opacity="0.38"></rect><rect width="169" height="3" x="236.5" y="450.5" rx="1.5" transform="rotate(45, 321, 452)" opacity="0.80"></rect><rect width="392" height="3" x="540" y="512.5" rx="1.5" transform="rotate(45, 736, 514)" opacity="0.08"></rect><rect width="566" height="3" x="292" y="677.5" rx="1.5" transform="rotate(45, 575, 679)" opacity="0.65"></rect><rect width="122" height="3" x="22" y="40.5" rx="1.5" transform="rotate(45, 83, 42)" opacity="0.27"></rect><rect width="276" height="3" x="249" y="217.5" rx="1.5" transform="rotate(45, 387, 219)" opacity="0.60"></rect><rect width="295" height="3" x="622.5" y="46.5" rx="1.5" transform="rotate(45, 770, 48)" opacity="0.95"></rect><rect width="299" height="3" x="-129.5" y="121.5" rx="1.5" transform="rotate(45, 20, 123)" opacity="0.21"></rect><rect width="177" height="3" x="165.5" y="461.5" rx="1.5" transform="rotate(45, 254, 463)" opacity="0.42"></rect><rect width="283" height="3" x="458.5" y="345.5" rx="1.5" transform="rotate(45, 600, 347)" opacity="0.78"></rect><rect width="650" height="3" x="-28" y="154.5" rx="1.5" transform="rotate(45, 297, 156)" opacity="0.52"></rect><rect width="225" height="3" x="-41.5" y="247.5" rx="1.5" transform="rotate(45, 71, 249)" opacity="0.83"></rect><rect width="90" height="3" x="559" y="588.5" rx="1.5" transform="rotate(45, 604, 590)" opacity="0.20"></rect><rect width="210" height="3" x="148" y="737.5" rx="1.5" transform="rotate(45, 253, 739)" opacity="0.31"></rect><rect width="317" height="3" x="-135.5" y="45.5" rx="1.5" transform="rotate(45, 23, 47)" opacity="0.94"></rect><rect width="74" height="3" x="461" y="204.5" rx="1.5" transform="rotate(45, 498, 206)" opacity="0.51"></rect><rect width="281" height="3" x="-52.5" y="190.5" rx="1.5" transform="rotate(45, 88, 192)" opacity="0.12"></rect><rect width="562" height="3" x="-150" y="681.5" rx="1.5" transform="rotate(45, 131, 683)" opacity="0.98"></rect><rect width="277" height="3" x="418.5" y="760.5" rx="1.5" transform="rotate(45, 557, 762)" opacity="0.37"></rect><rect width="317" height="3" x="300.5" y="495.5" rx="1.5" transform="rotate(45, 459, 497)" opacity="0.39"></rect><rect width="212" height="3" x="412" y="106.5" rx="1.5" transform="rotate(45, 518, 108)" opacity="0.07"></rect><rect width="629" height="3" x="335.5" y="241.5" rx="1.5" transform="rotate(45, 650, 243)" opacity="0.92"></rect><rect width="313" height="3" x="611.5" y="444.5" rx="1.5" transform="rotate(45, 768, 446)" opacity="0.41"></rect><rect width="544" height="3" x="-129" y="142.5" rx="1.5" transform="rotate(45, 143, 144)" opacity="0.26"></rect><rect width="398" height="3" x="-112" y="335.5" rx="1.5" transform="rotate(45, 87, 337)" opacity="0.97"></rect><rect width="468" height="3" x="-51" y="349.5" rx="1.5" transform="rotate(45, 183, 351)" opacity="0.08"></rect><rect width="325" height="3" x="437.5" y="136.5" rx="1.5" transform="rotate(45, 600, 138)" opacity="0.94"></rect><rect width="352" height="3" x="220" y="711.5" rx="1.5" transform="rotate(45, 396, 713)" opacity="0.99"></rect><rect width="405" height="3" x="80.5" y="641.5" rx="1.5" transform="rotate(45, 283, 643)" opacity="0.38"></rect><rect width="71" height="3" x="501.5" y="441.5" rx="1.5" transform="rotate(45, 537, 443)" opacity="0.32"></rect><rect width="484" height="3" x="228" y="670.5" rx="1.5" transform="rotate(45, 470, 672)" opacity="0.48"></rect><rect width="554" height="3" x="432" y="312.5" rx="1.5" transform="rotate(45, 709, 314)" opacity="0.11"></rect><rect width="82" height="3" x="32" y="120.5" rx="1.5" transform="rotate(45, 73, 122)" opacity="0.98"></rect><rect width="219" height="3" x="429.5" y="535.5" rx="1.5" transform="rotate(45, 539, 537)" opacity="0.80"></rect><rect width="547" height="3" x="487.5" y="204.5" rx="1.5" transform="rotate(45, 761, 206)" opacity="0.32"></rect><rect width="323" height="3" x="510.5" y="579.5" rx="1.5" transform="rotate(45, 672, 581)" opacity="0.71"></rect><rect width="186" height="3" x="47" y="489.5" rx="1.5" transform="rotate(45, 140, 491)" opacity="0.63"></rect><rect width="486" height="3" x="55" y="53.5" rx="1.5" transform="rotate(45, 298, 55)" opacity="0.98"></rect><rect width="498" height="3" x="286" y="271.5" rx="1.5" transform="rotate(45, 535, 273)" opacity="0.75"></rect><rect width="493" height="3" x="-221.5" y="290.5" rx="1.5" transform="rotate(45, 25, 292)" opacity="0.20"></rect><rect width="221" height="3" x="-86.5" y="635.5" rx="1.5" transform="rotate(45, 24, 637)" opacity="0.91"></rect><rect width="183" height="3" x="384.5" y="365.5" rx="1.5" transform="rotate(45, 476, 367)" opacity="0.18"></rect><rect width="70" height="3" x="716" y="618.5" rx="1.5" transform="rotate(45, 751, 620)" opacity="0.44"></rect><rect width="278" height="3" x="543" y="152.5" rx="1.5" transform="rotate(45, 682, 154)" opacity="0.53"></rect><rect width="563" height="3" x="342.5" y="463.5" rx="1.5" transform="rotate(45, 624, 465)" opacity="0.13"></rect><rect width="380" height="3" x="473" y="35.5" rx="1.5" transform="rotate(45, 663, 37)" opacity="0.25"></rect><rect width="118" height="3" x="206" y="372.5" rx="1.5" transform="rotate(45, 265, 374)" opacity="0.55"></rect><rect width="601" height="3" x="128.5" y="40.5" rx="1.5" transform="rotate(45, 429, 42)" opacity="0.70"></rect><rect width="507" height="3" x="142.5" y="444.5" rx="1.5" transform="rotate(45, 396, 446)" opacity="0.29"></rect><rect width="392" height="3" x="531" y="88.5" rx="1.5" transform="rotate(45, 727, 90)" opacity="0.88"></rect><rect width="427" height="3" x="450.5" y="731.5" rx="1.5" transform="rotate(45, 664, 733)" opacity="0.19"></rect><rect width="141" height="3" x="269.5" y="365.5" rx="1.5" transform="rotate(45, 340, 367)" opacity="0.44"></rect><rect width="405" height="3" x="192.5" y="625.5" rx="1.5" transform="rotate(45, 395, 627)" opacity="0.37"></rect><rect width="159" height="3" x="344.5" y="130.5" rx="1.5" transform="rotate(45, 424, 132)" opacity="0.77"></rect><rect width="180" height="3" x="100" y="451.5" rx="1.5" transform="rotate(45, 190, 453)" opacity="0.77"></rect><rect width="257" height="3" x="-47.5" y="602.5" rx="1.5" transform="rotate(45, 81, 604)" opacity="0.65"></rect><rect width="362" height="3" x="31" y="180.5" rx="1.5" transform="rotate(45, 212, 182)" opacity="0.34"></rect><rect width="388" height="3" x="128" y="538.5" rx="1.5" transform="rotate(45, 322, 540)" opacity="0.21"></rect><rect width="272" height="3" x="50" y="605.5" rx="1.5" transform="rotate(45, 186, 607)" opacity="0.60"></rect><rect width="515" height="3" x="134.5" y="553.5" rx="1.5" transform="rotate(45, 392, 555)" opacity="0.32"></rect></g></svg>