<svg width="100%" height="100%" id="svg" viewBox="0 0 1440 590" xmlns="http://www.w3.org/2000/svg"
 class="transition duration-300 ease-in-out delay-150"><defs><linearGradient id="gradient" x1="100%" y1="100%" x2="100%" y2="100%"><stop offset="5%" stop-color="#ba68c8"></stop><stop offset="95%" stop-color="#8ed1fc"></stop></linearGradient></defs><path d="M 0,600 C 0,600 0,200 0,200 C 99.5885167464115,215.3397129186603 199.177033492823,230.6794258373206 299,231 C 398.822966507177,231.3205741626794 498.88038277511953,216.62200956937795 582,203 C 665.1196172248805,189.37799043062205 731.3014354066985,176.8325358851675 825,175 C 918.6985645933015,173.1674641148325 1039.9138755980862,182.04784688995213 1147,188 C 1254.0861244019138,193.95215311004787 1347.043062200957,196.97607655502395 1440,200 C 1440,200 1440,600 1440,600 Z" stroke="none" stroke-width="0" fill="url(#gradient)" fill-opacity="0.53" class="transition-all duration-300 ease-in-out delay-150 path-0" transform="rotate(-180 720 300)"></path><defs><linearGradient id="gradient" x1="60%" y1="99%" x2="40%" y2="1%"><stop offset="5%" stop-color="#ba68c8"></stop><stop offset="95%" stop-color="#8ed1fc"></stop></linearGradient></defs><path d="M 0,600 C 0,600 0,400 0,400 C 116.61244019138758,367.4928229665072 233.22488038277515,334.9856459330144 329,340 C 424.77511961722485,345.0143540669856 499.7129186602871,387.55023923444975 597,385 C 694.2870813397129,382.44976076555025 813.9234449760766,334.8133971291866 904,349 C 994.0765550239234,363.1866028708134 1054.5933014354068,439.1961722488038 1139,458 C 1223.4066985645932,476.8038277511962 1331.7033492822966,438.4019138755981 1440,400 C 1440,400 1440,600 1440,600 Z" stroke="none" stroke-width="0" fill="url(#gradient)" fill-opacity="1" class="transition-all duration-300 ease-in-out delay-150 path-1" transform="rotate(-180 720 300)"></path></svg>