<svg width="100%" height="100%" id="svg" viewBox="0 0 1440 690" xmlns="http://www.w3.org/2000/svg" class="transition duration-300 ease-in-out delay-150"><defs><linearGradient id="gradient" x1="0%" y1="50%" x2="100%" y2="50%"><stop offset="5%" stop-color="#c4ddfe"></stop><stop offset="95%" stop-color="#ffb6c1"></stop></linearGradient></defs><path d="M 0,700 C 0,700 0,233 0,233 C 114.44019138755979,221.52631578947367 228.88038277511959,210.05263157894734 331,203 C 433.1196172248804,195.94736842105266 522.9186602870813,193.31578947368425 608,207 C 693.0813397129187,220.68421052631575 773.4449760765552,250.68421052631572 871,271 C 968.5550239234448,291.3157894736843 1083.3014354066984,301.94736842105266 1181,294 C 1278.6985645933016,286.05263157894734 1359.349282296651,259.52631578947364 1440,233 C 1440,233 1440,700 1440,700 Z" stroke="none" stroke-width="0" fill="url(#gradient)" fill-opacity="0.53" class="transition-all duration-300 ease-in-out delay-150 path-0"></path><defs><linearGradient id="gradient" x1="0%" y1="50%" x2="100%" y2="50%"><stop offset="5%" stop-color="#c4ddfe"></stop><stop offset="95%" stop-color="#ffb6c1"></stop></linearGradient></defs><path d="M 0,700 C 0,700 0,466 0,466 C 119.28229665071771,429.3205741626794 238.56459330143542,392.6411483253588 323,391 C 407.4354066985646,389.3588516746412 457.02392344497594,422.755980861244 542,428 C 626.9760765550241,433.244019138756 747.3397129186604,410.3349282296651 847,417 C 946.6602870813396,423.6650717703349 1025.6172248803828,459.9043062200957 1121,473 C 1216.3827751196172,486.0956937799043 1328.1913875598086,476.04784688995215 1440,466 C 1440,466 1440,700 1440,700 Z" stroke="none" stroke-width="0" fill="url(#gradient)" fill-opacity="1" class="transition-all duration-300 ease-in-out delay-150 path-1"></path></svg>