<svg xmlns="http://www.w3.org/2000/svg" version="1.1" xmlns:xlink="http://www.w3.org/1999/xlink" xmlns:svgjs="http://svgjs.dev/svgjs" height="400px" viewBox="0 0 1422 800"><defs><linearGradient x1="0%" y1="50%" x2="100%" y2="50%" id="oooscillate-grad"><stop stop-color="#c4ddfe" stop-opacity="1" offset="0%"></stop><stop stop-color="#ffb6c1" stop-opacity="1" offset="100%"></stop></linearGradient></defs><g stroke-width="3.5" stroke="url(#oooscillate-grad)" fill="none" stroke-linecap="round"><path d="M 0 851 Q 355.5 -100 711 400 Q 1066.5 900 1422 851"></path><path d="M 0 828 Q 355.5 -100 711 400 Q 1066.5 900 1422 828"></path><path d="M 0 805 Q 355.5 -100 711 400 Q 1066.5 900 1422 805"></path><path d="M 0 782 Q 355.5 -100 711 400 Q 1066.5 900 1422 782"></path><path d="M 0 759 Q 355.5 -100 711 400 Q 1066.5 900 1422 759"></path><path d="M 0 736 Q 355.5 -100 711 400 Q 1066.5 900 1422 736"></path><path d="M 0 713 Q 355.5 -100 711 400 Q 1066.5 900 1422 713"></path><path d="M 0 690 Q 355.5 -100 711 400 Q 1066.5 900 1422 690"></path><path d="M 0 667 Q 355.5 -100 711 400 Q 1066.5 900 1422 667"></path><path d="M 0 644 Q 355.5 -100 711 400 Q 1066.5 900 1422 644"></path><path d="M 0 621 Q 355.5 -100 711 400 Q 1066.5 900 1422 621"></path><path d="M 0 598 Q 355.5 -100 711 400 Q 1066.5 900 1422 598"></path><path d="M 0 575 Q 355.5 -100 711 400 Q 1066.5 900 1422 575"></path><path d="M 0 552 Q 355.5 -100 711 400 Q 1066.5 900 1422 552"></path><path d="M 0 529 Q 355.5 -100 711 400 Q 1066.5 900 1422 529"></path><path d="M 0 506 Q 355.5 -100 711 400 Q 1066.5 900 1422 506"></path><path d="M 0 483 Q 355.5 -100 711 400 Q 1066.5 900 1422 483"></path><path d="M 0 460 Q 355.5 -100 711 400 Q 1066.5 900 1422 460"></path><path d="M 0 437 Q 355.5 -100 711 400 Q 1066.5 900 1422 437"></path><path d="M 0 414 Q 355.5 -100 711 400 Q 1066.5 900 1422 414"></path><path d="M 0 391 Q 355.5 -100 711 400 Q 1066.5 900 1422 391"></path><path d="M 0 368 Q 355.5 -100 711 400 Q 1066.5 900 1422 368"></path><path d="M 0 345 Q 355.5 -100 711 400 Q 1066.5 900 1422 345"></path><path d="M 0 322 Q 355.5 -100 711 400 Q 1066.5 900 1422 322"></path><path d="M 0 299 Q 355.5 -100 711 400 Q 1066.5 900 1422 299"></path><path d="M 0 276 Q 355.5 -100 711 400 Q 1066.5 900 1422 276"></path><path d="M 0 253 Q 355.5 -100 711 400 Q 1066.5 900 1422 253"></path><path d="M 0 230 Q 355.5 -100 711 400 Q 1066.5 900 1422 230"></path><path d="M 0 207 Q 355.5 -100 711 400 Q 1066.5 900 1422 207"></path><path d="M 0 184 Q 355.5 -100 711 400 Q 1066.5 900 1422 184"></path><path d="M 0 161 Q 355.5 -100 711 400 Q 1066.5 900 1422 161"></path><path d="M 0 138 Q 355.5 -100 711 400 Q 1066.5 900 1422 138"></path><path d="M 0 115 Q 355.5 -100 711 400 Q 1066.5 900 1422 115"></path><path d="M 0 92 Q 355.5 -100 711 400 Q 1066.5 900 1422 92"></path><path d="M 0 69 Q 355.5 -100 711 400 Q 1066.5 900 1422 69"></path>
<path d="M 0 46 Q 355.5 -100 711 400 Q 1066.5 900 1422 46"></path></g></svg>