<svg xmlns="http://www.w3.org/2000/svg" version="1.1" xmlns:xlink="http://www.w3.org/1999/xlink" xmlns:svgjs="http://svgjs.dev/svgjs" height="400px" width="600px" viewBox="0 0 800 800" opacity="0.58"><defs><linearGradient x1="50%" y1="0%" x2="50%" y2="100%" id="wwwhirl-grad"><stop stop-color="hsl(206, 75%, 49%)" stop-opacity="1" offset="45%"></stop><stop stop-color="hsl(331, 90%, 65%)" stop-opacity="1" offset="100%"></stop></linearGradient></defs><g stroke-width="2" stroke="url(#wwwhirl-grad)" fill="none" stroke-linecap="round"><path d="M51.500000664711024 420.96712366524343C63.116667685890235 404.99420651112206 97.96666874942788 326.5671832843859 121.20000279178629 325.12962074051495C144.4333368341447 323.69205819664404 167.6666708765031 404.5150189964984 190.90000491886155 412.34174840201786C214.13333896121998 420.1684778075374 237.3666730035784 370.17324711513737 260.6000070459368 372.08999717363196C283.83334108829524 374.0067472321265 307.06667513065366 427.51601969843324 330.30000917301214 423.8422487529853C353.53334321537056 420.1684778075374 376.76667725772893 341.58172540926 400.00001130008735 350.0473715009444C423.2333453424458 358.5130175926287 446.4666793848042 468.88587512760773 469.7000134271626 474.6361253030914C492.9333474695211 480.38637547857513 516.1666815118795 386.3058934408 539.4000155542378 384.54887255384665C562.6333495965964 382.79185166689325 585.8666836389548 463.45508329520635 609.1000176813131 464.09399998137127C632.3333517236715 464.73291666753613 655.56668576603 390.6185810724128 678.8000198083885 388.38237267083576C702.0333538507468 386.14616426925875 736.8833549142845 440.29435342173036 748.5000219354637 450.6767495719093 " transform="rotate(110.5, 400, 400)"></path><path d="M61.750000645160696 420.3504454647908C73.02500098924641 404.847319991673 106.85000202150353 328.7269739186644 129.40000270967494 327.33169262608374C151.95000339784633 325.93641133350314 174.50000408601773 404.38222622747946 197.05000477418915 411.9787577093072C219.60000546236057 419.5752891911349 242.15000615053196 371.0505064602761 264.7000068387034 372.9108815170502C287.2500075268748 374.77125657382436 309.8000082150462 426.70672690876916 332.3500089032176 423.141008049952C354.90000959138905 419.5752891911349 377.4500102795604 343.29991186339515 400.0000109677318 351.5165683641476C422.55001165590323 359.7332248649001 445.1000123440746 466.85982188414437 467.650013032246 472.4409470544668C490.2000137204174 478.0220722247892 512.7500144085889 386.7086631881251 535.3000150967603 385.0033193860821C557.8500157849318 383.2979755840392 580.4000164731032 461.5887592232843 602.9500171612746 462.208884242209C625.500017849446 462.8290092611337 648.0500185376173 390.89450706586695 670.6000192257887 388.72406949963045C693.1500199139601 386.55363193339394 726.9750209462173 439.10922728726337 738.250021290303 449.18625884479 " transform="rotate(107.25, 400, 400)"></path><path d="M72.00000062561038 419.7337596349437C82.93333429260258 404.70042584282936 115.73333529357919 330.8867569235483 137.60000262756358 329.533756882258C159.46666996154795 328.1807568409677 181.33333729553232 404.24942582906596 203.20000462951674 411.61575938720193C225.06667196350114 418.9820929453379 246.93333929748556 371.92775817602023 268.80000663146996 373.73175823107397C290.6666739654544 375.5357582861277 312.53334129943875 425.8974264897105 334.40000863342317 422.4397597175242C356.2666759674076 418.9820929453379 378.1333433013919 345.0180906881357 400.0000106353763 352.9857575979563C421.8666779693607 360.95342450777684 443.7333453033451 464.83376101128647 465.60001263732954 470.2457611764476C487.4666799713139 475.65776134160876 509.33334730529833 387.1114253060557 531.2000146392827 385.4577585889231C553.0666819732671 383.80409187179055 574.9333493072515 459.7224275219676 596.800016641236 460.3237608736522C618.6666839752203 460.9250942253368 640.5333513092047 391.1704254299265 662.4000186431891 389.06575869903054C684.2666859771736 386.96109196813455 717.0666869781502 437.9240935234019 728.0000206451423 447.69576048827616 " transform="rotate(104, 400, 400)"></path><path d="M82.25000060606006 419.11707761979375C92.84166759595874 404.553535508683 124.61666856565483 333.0465437431295 145.8000025454522 331.7358249531295C166.9833365252496 330.42510616312956 188.16667050504697 404.1166292453497 209.35000448484436 411.252764879794C230.53333846464173 418.3889005142382 251.71667244443913 372.8050137064617 272.9000064242365 374.552638759795C294.08334040403395 376.30026381312825 315.2666743838313 425.08812988534913 336.4500083636287 421.73851519979365C357.6333423434261 418.3889005142382 378.8166763232234 346.73627332757354 400.0000103030208 354.45495064646224C421.18334428281815 362.1736279653509 442.36667826261555 462.80770395312584 463.550012242413 468.05057911312565C484.7333462222104 473.2934542731256 505.91668020200774 387.5141912386835 527.1000141818051 385.91220160646134C548.2833481616026 384.31021197423917 569.4666821413999 457.8560996353482 590.6500161211973 458.4386413197926C611.8333501009947 459.02118300423706 633.0166840807921 391.44634760868337 654.2000180605895 389.4074517131279C675.3833520403869 387.3685558175724 707.1583530100829 436.7389635742377 717.7500199999816 446.20526594645963 " transform="rotate(100.75, 400, 400)"></path><path d="M92.50000058650973 418.5004070487356C102.75000089931491 404.4066566186285 133.50000183773048 335.20634200680246 154.00000246334085 333.9379044680928C174.50000308895122 332.6694669293832 195.00000371456156 403.9838441057253 215.50000434017196 410.88978181647775C236.00000496578232 417.7957195272303 256.5000055913927 373.68228068099495 277.00000621700303 375.37353073260783C297.5000068426135 377.06478078422066 318.0000074682239 424.2788447250796 338.50000809383425 421.0372821261549C359.0000087194446 417.7957195272303 379.50000934505493 348.45446741110317 400.0000099706653 355.92415513905996C420.5000105962757 363.39384286701676 441.00001122188604 460.781658339057 461.5000118474964 465.8554084938956C482.0000124731068 470.92915864873413 502.5000130987172 387.91696861540316 523.0000137243276 386.36665606809134C543.5000143499379 384.8163435207796 564.0000149755483 455.9897831928206 584.5000156011587 456.55353321002485C605.000016226769 457.11728322722917 625.5000168523794 391.72228123153207 646.0000174779898 389.74915617131705C666.5000181036002 387.7760311111021 697.2500190420158 435.5538450691653 707.5000193548209 444.7147828487349 " transform="rotate(97.5, 400, 400)"></path><path d="M102.7500005669594 417.88372121888847C112.65833420267109 404.25976246978485 142.38333510980613 337.3661250116864 162.20000238122947 336.1399687242671C182.01666965265287 334.91381243684776 201.8333369240762 403.85104370731176 221.65000419549955 410.5267834943725C241.46667146692292 417.2025232814333 261.2833387383463 374.55953239673914 281.10000600976963 376.19440744663154C300.91667328119297 377.829282496524 320.73334055261637 423.4695443060209 340.55000782403977 420.3360337937271C360.3666750954631 417.2025232814333 380.1833423668864 350.17264623584373 400.0000096383098 357.3933443728686C419.81667690973313 364.6140425098935 439.63334418115653 458.7555974661991 459.4500114525799 463.66022261587636C479.2666787240032 468.5648477655537 499.0833459954266 388.3197307333337 518.90001326685 386.82109527093235C538.7166805382733 385.32245980853094 558.5333478096967 454.1234514915039 578.3500150811201 454.668409841468C598.1666823525434 455.2133681914322 617.9833496239668 391.9981995955917 637.8000168953902 390.0908453707172C657.6166841668135 388.18349114584265 687.3416850739485 434.36871130530375 697.2500187096603 443.22428449222105 " transform="rotate(94.25, 400, 400)"></path><path d="M113.00000054740907 417.2670430184358C122.56666750602726 404.1128759503358 151.26666838188177 339.52591564596486 170.4000022991181 338.34204060983586C189.53333621635448 337.15816557370687 208.6666701335908 403.71825093829284 227.80000405082714 410.16379280166177C246.93333796806348 416.6093346650308 266.06667188529985 375.43679174187787 285.2000058025362 377.01529179004984C304.33333971977254 378.5937918382218 323.46667363700897 422.66025151635677 342.6000075542453 419.6347930906938C361.7333414714816 416.6093346650308 380.8666753887179 351.8908326899789 400.0000093059543 358.8625412360718C419.1333432231906 365.8342497821649 438.26667714042696 456.72954422273574 457.40001105766333 461.4650443672517C476.5333449748997 466.20054451176776 495.666678892136 388.7225004806588 514.8000128093724 387.2755421031678C533.9333467266088 385.8285837256768 553.0666806438451 452.2571274195817 572.2000145610814 452.7832941023058C591.3333484783178 453.3094607850298 610.4666823955541 392.2741255890458 629.6000163127906 390.43254219951183C648.7333502300269 388.5909588099778 677.4333511058813 433.18358517083675 687.0000180644995 441.7337937651018 " transform="rotate(91, 400, 400)"></path><path d="M123.25000052785876 416.65036100328587C132.47500080938343 403.96598561618947 160.15000165395742 341.68570246554606 178.60000221700676 340.5441086807074C197.0500027800561 339.4025148958687 215.50000334310542 403.5854543545766 233.95000390615476 409.8007982942538C252.4000044692041 416.0161422339311 270.8500050322534 376.31404727231927 289.30000559530276 377.8361723187709C307.7500061583521 379.3582973652224 326.20000672140145 421.8509549119954 344.6500072844508 418.9335485729632C363.10000784750014 416.0161422339311 381.5500084105494 353.6090153294167 400.00000897359877 360.3317342845778C418.4500095366481 367.0544532397389 436.90001009969745 454.7034871645751 455.3500106627468 459.26986230392987C473.80001122579614 463.8362374432846 492.2500117888454 389.1252664132867 510.70001235189477 387.72998512070603C529.1500129149441 386.33470382812544 547.6000134779935 450.3907995329623 566.0500140410428 450.8981745484462C584.5000146040921 451.4055495639301 602.9500151671415 392.5500477678027 621.4000157301908 390.7742352136092C639.8500162932402 388.9984226594157 667.5250171378142 431.99845522167254 676.7500174193389 440.24329922328525 " transform="rotate(87.75, 400, 400)"></path><path d="M133.50000050830843 416.033678988136C142.3833341127396 403.8190952820431 169.0333349260331 343.84548928512726 186.8000021348954 342.7461767515789C204.56666934375772 341.64686421803054 222.33333655262004 403.45265777086036 240.10000376148236 409.43780378684585C257.86667097034467 415.42294980283134 275.63333817920704 377.19130280276073 293.4000053880693 378.65705284749185C311.1666725969317 380.12280289222304 328.933339805794 421.04165830763407 346.7000070146563 418.2323040552327C364.4666742235187 415.42294980283134 382.23334143238094 355.32719796885453 400.00000864124326 361.80092733308373C417.76667585010557 368.27465669731293 435.5333430589679 452.6774301064145 453.3000102678302 457.07468024060796C471.0666774766926 461.47193037480133 488.8333446855549 389.5280323459145 506.6000118944172 388.1844281382443C524.3666791032795 386.84082393057406 542.1333463121418 448.52447164634293 559.9000135210042 449.0130549945867C577.6666807298666 449.50163834283035 595.4333479387288 392.82596994655955 613.2000151475912 391.11592822770655C630.9666823564535 389.40588650885354 657.6166831697469 430.81332527250834 666.5000167741781 438.75280468146866 " transform="rotate(84.5, 400, 400)"></path><path d="M143.7500004887581 415.4170007876833C152.29166741609578 403.67220876259404 177.91666819810874 346.0052799194057 195.00000205278403 344.9482486371477C212.08333590745934 343.89121735488965 229.16666976213463 403.3198650018414 246.25000361680998 409.07481309413515C263.33333747148527 414.82976118642887 280.41667132616055 378.06856214789946 297.5000051808359 379.47793719091015C314.58333903551124 380.88731223392085 331.66667289018653 420.2323655179699 348.7500067448618 417.5310633521994C365.83334059953717 414.82976118642887 382.9166744542124 357.0453844229896 400.00000830888774 363.27012419628693C417.0833421635631 369.4948639695843 434.1666760182384 450.65137686295117 451.25000987291367 454.87950199198326C468.333343727589 459.1076271210154 485.4166775822643 389.9308020932396 502.50001143693964 388.6388749704798C519.5833452916149 387.34694784771995 536.6666791462902 446.6581475744208 553.7500130009655 447.1279392554244C570.8333468556409 447.597730936428 587.9166807103162 393.1018959400137 605.0000145649915 391.45762505650123C622.0833484196669 389.81335417298874 647.7083492016798 429.62819913804134 656.2500161290175 437.2623139543494 " transform="rotate(81.25, 400, 400)"></path><path d="M153.9999852104187 414.80032258723065C162.19998546066287 403.52532224314496 186.79998621139532 348.1650705536842 203.1999867118836 347.15032052271647C219.5999872123719 346.13557049174875 235.9999877128602 403.1870722328224 252.39998821334848 408.7118224014244C268.7999887138368 414.2365725700264 285.1999892143251 378.9458214930381 301.59998971481343 380.29882153432845C317.9999902153017 381.6518215756187 334.39999071579 419.42307272830584 350.79999121627833 416.8298226491661C367.1999917167666 414.2365725700264 383.59999221725485 358.7635708771247 399.99999271774317 364.7393210594902C416.3999932182315 370.7150712418556 432.79999371871975 448.6253236194878 449.19999421920807 452.6843237433586C465.5999947196964 456.7433238672295 481.99999522018464 390.3335718405647 498.39999572067296 389.0933218027153C514.7999962211613 387.85307176486583 531.1999967216495 444.79182350249863 547.5999972221379 445.2428235162621C563.9999977226262 445.6938235300255 580.3999982231144 393.3778219334678 596.7999987236028 391.79932188529585C613.199999224091 390.2208218371238 637.7999999748235 428.44307300357434 646.0000002250677 435.7718232272301 " transform="rotate(78, 400, 400)"></path><path d="M164.24998519086841 414.1836405720808C172.10831876401903 403.3784319089986 195.68331948347097 350.3248573732654 211.39998662977226 349.352388593588C227.11665377607355 348.3799198139106 242.8333209223748 403.05427564910616 258.5499880686761 408.34882789401644C274.2666552149774 413.64338013892666 289.9833223612787 379.8230770234796 305.69998950757997 381.11970206304943C321.41665665388126 382.4163271026193 337.13332380018255 418.61377612394443 352.8499909464838 416.1285781314356C368.56665809278513 413.64338013892666 384.28332523908637 360.48175351656255 399.9999923853877 366.2085141079961C415.71665953168895 371.9352746994296 431.43332667799024 446.59926656132717 447.1499938242915 450.4891416800367C462.8666609705928 454.3790167987463 478.5833281168941 390.73633777319253 494.2999952631954 389.5477648202535C510.0166624094967 388.35919186731445 525.733329555798 442.92549561587924 541.4499967020993 443.3577039624025C557.1666638484005 443.78991230892586 572.8833309947017 393.65374411222473 588.5999981410031 392.1410148993932C604.3166652873044 390.6282856865617 627.8916660067563 427.25794305441013 635.749999579907 434.28132868541354 " transform="rotate(74.75, 400, 400)"></path><path d="M174.4999851713181 413.5669623716281C182.01665206737522 403.2315453895496 204.5666527555466 352.4846480075438 219.59998654766088 351.5544604791568C234.63332033977517 350.6242729507697 249.6666541318894 402.9214828800872 264.6999879240037 407.9858372013057C279.733321716118 413.0501915225242 294.76665550823225 380.7003363686183 309.7999893003465 381.94058640646773C324.8333230924608 383.18083644431715 339.8666568845751 417.80448333428035 354.89999067668936 415.42733742840227C369.9333244688036 413.0501915225242 384.9666582609178 362.19993997069764 399.99999205303214 367.6777109711993C415.03332584514646 373.15548197170097 430.0666596372607 444.5732133178638 445.09999342937493 448.29396343141207C460.13332722148925 452.0147135449604 475.1666610136035 391.13910752051765 490.19999480571784 390.002211652489C505.2333285978321 388.86531578446034 520.2666623899463 441.05917154395706 535.2999961820607 441.4725882232402C550.333329974175 441.8860049025234 565.3666637662891 393.92967010567884 580.3999975584035 392.48271172818784C595.4333313505177 391.03575335069684 617.9833320386891 426.0728169199432 625.4999989347464 432.7908379582942 " transform="rotate(71.5, 400, 400)"></path><path d="M184.74998515176776 412.9502841711755C191.92498537073138 403.0846588701005 213.4499860276223 354.64443864182226 227.79998646554952 353.75653236472556C242.1499869034768 352.8686260876288 256.49998734140405 402.78869011106826 270.8499877793313 407.622846508595C285.1999882172586 412.4570029061217 299.54998865518587 381.577595713757 313.8999890931131 382.76147074988603C328.24998953104034 383.945345786015 342.59998996896763 416.9951905446162 356.94999040689487 414.72609672536896C371.29999084482216 412.4570029061217 385.6499912827494 363.9181264248328 399.9999917206767 369.1469078344025C414.34999215860387 374.37568924397226 428.69999259653116 442.54716007440044 443.04999303445845 446.0987851827874C457.3999934723857 449.65041029117447 471.7499939103129 391.5418772678428 486.0999943482402 390.45665848472447C500.4499947861675 389.3714397016063 514.7999952240948 439.19284747203494 529.149995662022 439.5874724840779C543.4999960999493 439.98209749612096 557.8499965378765 394.205596099133 572.1999969758037 392.8244085569825C586.549997413731 391.443221014832 608.074998070622 424.8876907854762 615.2499982895856 431.30034723117495 " transform="rotate(68.25, 400, 400)"></path><path d="M194.99998513221743 412.33360215602556C201.83331867408754 402.93776853595415 222.33331929969793 356.80422546140346 235.99998638343817 355.9586004355971C249.66665346717843 355.11297540979064 263.33332055091864 402.655893527352 276.9999876346589 407.259852001187C290.6666547183992 411.863810475022 304.3333218021394 382.45485124419844 317.99998888587965 383.582351278607C331.6666559696199 384.7098513130156 345.3333230533601 416.18589394025486 358.99999013710044 414.02485220763845C372.66665722084065 411.863810475022 386.33332430458086 365.6363090642706 399.9999913883211 370.6161008829085C413.6666584720614 375.5958927015463 427.3333255558016 440.5211030162398 440.9999926395419 443.9036031194655C454.6666597232821 447.2861032226912 468.3333268070224 391.9446432004706 481.99999389076265 390.91110150226274C495.6666609745029 389.87755980405484 509.3333280582431 437.32651958541555 522.9999951419834 437.7023529302184C536.6666622257237 438.07818627502127 550.3333293094639 394.48151827788985 563.9999963932041 393.1661015710799C577.6666634769444 391.85068486426985 598.1666641025548 423.702560836312 604.9999976444249 429.8098526893584 " transform="rotate(65, 400, 400)"></path><path d="M205.2499851126671 411.7169201408757C211.74165197744372 402.7908782018078 231.21665257177358 358.96401228098466 244.19998630132682 358.16066850646854C257.18332003088005 357.3573247319525 270.1666537604333 402.5230969436358 283.14998748998653 406.896857493779C296.13332121953977 411.27061804392224 309.116654949093 383.3321067746399 322.09998867864624 384.40323180732804C335.0833224081995 385.4743568400162 348.0666561377527 415.37659733589345 361.04998986730595 413.3236076899079C374.0333235968592 411.27061804392224 387.0166573264124 367.35449170370845 399.99999105596567 372.0852939314144C412.98332478551885 376.8160961591204 425.96665851507214 438.49504595807923 438.9499922446254 441.7084210561436C451.93332597417856 444.92179615420804 464.9166597037318 392.34740913309844 477.8999934332851 391.36554451980095C490.88332716283827 390.3836799065035 503.8666608923915 435.4601916987961 516.8499946219448 435.81723337635884C529.833328351498 436.1742750539216 542.8166620810513 394.75744045664675 555.7999958106045 393.50779458517724C568.7833295401576 392.2581487137077 588.2583301344876 422.5174308871477 594.7499969992642 428.31935814754183 " transform="rotate(61.75, 400, 400)"></path><path d="M215.49998509311678 411.100241940423C221.64998528079988 402.6439916823587 240.09998584384923 361.1238029152631 252.39998621921544 360.3627403920373C264.6999865945817 359.6016778688116 276.9999869699479 402.3903041746168 289.2999873453141 406.5338668010683C301.59998772068036 410.67742942751977 313.89998809604657 384.2093661197786 326.1999884714128 385.22411615074634C338.499988846779 386.238866181714 350.7999892221452 414.56730454622937 363.09998959751147 412.62236698687457C375.39998997287773 410.67742942751977 387.6999903482439 369.07267815784354 399.99999072361015 373.5544907946176C412.29999109897636 378.0363034313917 424.5999914743426 436.46899271461587 436.8999918497088 439.51324280751896C449.199992225075 442.5574929004221 461.49999260044126 392.7501788804235 473.79999297580747 391.8199913520365C486.0999933511737 390.8898038236494 498.39999372653995 433.593867626874 510.69999410190616 433.93211763719654C522.9999944772724 434.27036764751915 535.2999948526385 395.03336645010086 547.5999952280049 393.84949141397186C559.899995603371 392.66561637784287 578.3499961664204 421.3323047526808 584.4999963541036 426.82886742042257 " transform="rotate(58.5, 400, 400)"></path><path d="M225.74998507356645 410.4835599252731C231.55831858415604 402.49710134821237 248.98331911592487 363.2835897348443 260.5999861371041 362.56480846290884C272.2166531582833 361.8460271909734 283.8333201794625 402.25750759090056 295.4499872006417 406.1708722936603C307.06665422182095 410.08423699642003 318.68332124300014 385.0866216502201 330.2999882641793 386.0449966794673C341.91665528535856 387.0033717087146 353.5333223065378 413.75800794186796 365.149989327717 411.92112246914405C376.7666563488962 410.08423699642003 388.3833233700754 370.79086079728137 399.99999039125464 375.02368384312354C411.6166574124338 379.25650688896576 423.233324433613 434.44293565645523 434.84999145479225 437.31806074419706C446.4666584759715 440.19318583193893 458.08332549715067 393.15294481305136 469.69999251832985 392.2744343695747C481.31665953950915 391.395923926098 492.93332656068833 431.72753974025454 504.5499935818675 432.04699808333703C516.1666606030467 432.3664564264194 527.7833276242259 395.30928862885776 539.3999946454052 394.1911844280693C551.0166616665844 393.07308022728074 568.4416621983532 420.1471748035165 574.2499957089428 425.33837287860604 " transform="rotate(55.25, 400, 400)"></path><path d="M235.99998505401612 409.8668817248205C241.46665188751223 402.35021482876334 257.86665238800055 365.4433803691228 268.7999860549927 364.7668803484776C279.7333197219849 364.0903803278325 290.6666533889771 402.12471482188164 301.59998705596934 405.8078816009496C312.5333207229615 409.4910483800176 323.4666543899537 385.96388099535875 334.3999880569459 386.8658810228856C345.3333217239381 387.7678810504125 356.2666553909303 412.9487151522039 367.1999890579225 411.21988176611075C378.1333227249147 409.4910483800176 389.0666563919069 372.5090472514165 399.99999005889913 376.4928807063268C410.9333237258913 380.47671416123706 421.8666573928835 432.41688241299187 432.7999910598757 435.1228824955724C443.73332472686786 437.828882578153 454.6666583938601 393.5557145603765 465.5999920608523 392.72888120181017C476.5333257278445 391.9020478432439 487.4666593948367 429.8612156683324 498.3999930618289 430.1618823441747C509.3333267288211 430.46254902001704 520.2666603958132 395.5852146223119 531.1999940628054 394.5328812568639C542.1333277297977 393.4805478914159 558.5333282302861 418.9620486690496 563.9999950637821 423.8478821514867 " transform="rotate(52, 400, 400)"></path><path d="M246.2499850344658 409.25019970967054C251.37498519086841 402.203324494617 266.74998566007616 367.603167188704 276.99998597288135 366.96894841934915C287.24998628568653 366.3347296499943 297.4999865984917 401.9919182381654 307.7499869112969 405.44488709354164C317.9999872241021 408.8978559489179 328.24998753690727 386.8411365258002 338.49998784971245 387.68676155160665C348.7499881625177 388.53238657741304 358.9999884753229 412.1394185478425 369.24998878812806 410.5186372483802C379.49998910093325 408.8978559489179 389.7499894137384 374.22722989085435 399.9999897265436 377.9620737548327C410.24999003934875 381.6969176188111 420.499990352154 430.39082535483124 430.7499906649591 432.9277004322505C440.99999097776436 435.46457550966977 451.24999129056954 393.9584804930043 461.4999916033747 393.18332421934844C471.7499919161799 392.4081679456925 481.9999922289851 427.99488778171303 492.2499925417903 428.27676279031516C502.49999285459546 428.55863779891735 512.7499931674006 395.86113680106877 522.9999934802058 394.87457427096126C533.2499937930111 393.88801174085376 548.6249942622188 417.7769187198854 553.7499944186213 422.3573876096702 " transform="rotate(48.75, 400, 400)"></path><path d="M256.49998501491547 408.63352150921787C261.28331849422455 402.0564379751679 275.63331893215184 369.76295782298246 285.19998589077 369.17102030491793C294.76665284938815 368.5790827868534 304.3333198080063 401.8591254691464 313.8999867666245 405.0818964008309C323.4666537252427 408.3046673325154 333.0333206838609 387.71839587093893 342.59998764247905 388.5076458950249C352.1666546010972 389.2968959191109 361.7333215597154 411.3301257581784 371.2999885183336 409.8173965453469C380.86665547695173 408.3046673325154 390.4333224355699 375.94541634498944 399.9999893941881 379.4312706180359C409.56665635280626 382.91712489108244 419.1333233114244 428.36477211136787 428.6999902700426 430.73252218362586C438.2666572286608 433.10027225588385 447.83332418727895 394.3612502403294 457.39999114589716 393.6377710515839C466.9666581045153 392.9142918628384 476.5333250631335 426.12856370979085 486.09999202175163 426.39164705115286C495.66665898036985 426.6547303925149 505.233325938988 396.13706279452293 514.7999928976062 395.2162710997559C524.3666598562244 394.2954794049889 538.7166602941516 416.5917925854184 543.4999937734607 420.86689688255086 " transform="rotate(45.5, 400, 400)"></path><path d="M266.74998499536514 408.0168414014166C271.19165179758073 401.9095495483702 284.5166522042275 371.9227465499123 293.39998580865864 371.3730902831381C302.28331941308977 370.8234340163639 311.16665301752096 401.7263307927788 320.04998662195214 404.71890380077156C328.9333202263833 407.7114768087643 337.81665383081446 388.59565330872897 346.6999874352456 389.32852833109456C355.5833210396768 390.06140335346015 364.46665464410796 410.52083106116567 373.3499882485391 409.116153934965C382.2333218529703 407.7114768087643 391.1166554574014 377.6636008917759 399.9999890618326 380.90046557389053C408.8833226662637 384.1373302560051 417.76665627069485 426.33871696055587 426.64998987512604 428.5373420276526C435.5333234795572 430.7359670947493 444.4166570839884 394.7640180803059 453.29999068841954 394.09221597647075C462.18332429285067 393.42041387263566 471.06665789728186 424.2622377305201 479.94999150171304 424.506529404642C488.83332510614423 424.7508210787638 497.71665871057536 396.4129868806284 506.59999231500655 395.55796602120193C515.4833259194377 394.7029451617754 528.8083263260844 415.4066645436028 533.2499931283 419.37640424808296 " transform="rotate(42.25, 400, 400)"></path><path d="M276.9999849758148 407.4001612936153C281.0999851009369 401.7626611215725 293.39998547630313 374.08253527684207 301.5999857265473 373.57516026135823C309.7999859767914 373.06778524587435 317.99998622703555 401.5935361164112 326.1999864772797 404.35591120071217C334.39998672752387 407.1182862850132 342.599986977768 389.47291074651906 350.7999872280122 390.1494107671642C358.99998747825634 390.82591078780933 367.19998772850045 409.7115363641529 375.39998797874466 408.41491132458304C383.59998822898876 407.1182862850132 391.79998847923287 379.38178543856236 399.9999887294771 382.3696605297451C408.1999889797212 385.3575356209278 416.39998922996534 424.3126618097439 424.5999894802095 426.3421618716793C432.79998973045366 428.37166193361475 440.9999899806978 395.16678592028234 449.1999902309419 394.54666090135765C457.39999048118614 393.9265358824329 465.59999073143024 422.39591175124934 473.7999909816744 422.62141175813105C481.99999123191856 422.84691176501275 490.19999148216266 396.68891096673394 498.3999917324069 395.8996609426479C506.599991982651 395.1104109185619 518.8999923580172 414.22153650178717 522.9999924831393 417.88591161361506 " transform="rotate(39, 400, 400)"></path><path d="M287.25000021505355 406.7834811858141C291.0083336630821 401.61577269477476 302.2833340071678 376.2423240037719 309.80000090322494 375.7772302395784C317.31666779928213 375.3121364753848 324.8333346953392 401.4607414400436 332.3500015913964 403.99291860065284C339.8666684874535 406.5250957612621 347.38333538351065 390.35016818430915 354.9000022795678 390.97029320323384C362.4166691756249 391.5904182221586 369.9333360716821 408.9022416671402 377.45000296773924 407.7136687142011C384.96666986379637 406.5250957612621 392.48333675985344 381.0999699853488 400.00000365591063 383.83885548559965C407.51667055196776 386.5777409858505 415.0333374480249 422.2866066589319 422.550004344082 424.14698171570603C430.06667124013916 426.0073567724802 437.5833381361963 395.5695537602588 445.1000050322534 395.0011058262445C452.61667192831055 394.43265789223017 460.1333388243677 420.52958577197853 467.6500057204249 420.7362941116201C475.166672616482 420.9430024512617 482.6833395125391 396.9648350528394 490.20000640859627 396.2413558640939C497.7166733046534 395.5178766753484 508.9916736487391 413.0364084599716 512.7500070967677 416.3954189791471 " transform="rotate(35.75, 400, 400)"></path><path d="M297.5000001955033 406.1668010780128C300.9166669664383 401.46888426797705 311.1666672792435 378.40211273070173 318.00000082111364 377.97930021779854C324.83333436298375 377.5564877048953 331.66666790485385 401.327946763676 338.500001446724 403.6299260005935C345.3333349885941 405.931905237511 352.1666685304642 391.22742562209925 359.0000020723344 391.7911756393035C365.8333356142045 392.3549256565078 372.6666691560746 408.0929469701274 379.50000269794475 407.0124261038192C386.33333623981486 405.931905237511 393.16666978168496 382.8181545321353 400.0000033235551 385.3080504414542C406.8333368654252 387.79794635077315 413.6666704072953 420.26055150811993 420.5000039491655 421.95180155973276C427.3333374910356 423.64305161134564 434.1666710329057 395.9723216002353 441.00000457477586 395.45555075113134C447.833338116646 394.9387799020274 454.66667165851607 418.6632597927078 461.5000052003862 418.8511764651092C468.3333387422564 419.03909313751063 475.1666722841265 397.24075913894495 482.0000058259966 396.58305078553997C488.83333936786676 395.9253424321349 499.08333968067194 411.85128041815597 502.50000645160696 414.9049263446792 " transform="rotate(32.5, 400, 400)"></path><path d="M307.7500001759529 405.55011906286285C310.8250002697945 401.32199393383075 320.05000055131916 380.56189955028293 326.20000073900223 380.18136828867006C332.35000092668537 379.8008370270571 338.5000011143685 401.1951501799598 344.6500013020516 403.2669314931855C350.8000014897347 405.33871280641125 356.95000167741784 392.10468115254065 363.1000018651009 392.61205616802454C369.250002052784 393.11943118350837 375.40000224046713 407.28365036576605 381.55000242815026 406.31118158608865C387.7000026158334 405.33871280641125 393.8500028035165 384.5363371715731 400.0000029911996 386.7772434899602C406.1500031788827 389.01814980834723 412.3000033665658 418.2344944499593 418.45000355424895 419.75661949641085C424.600003741932 421.27874454286246 430.75000392961516 396.3750875328631 436.9000041172983 395.9099937686696C443.05000430498137 395.44490000447604 449.2000044926645 416.7969319060884 455.35000468034764 416.96605691124967C461.5000048680307 417.13518191641094 467.6500050557138 397.5166813177018 473.800005243397 396.9247437996373C479.95000543108006 396.3328062815728 489.17500571260473 410.66615046899176 492.2500058064463 413.4144318028626 " transform="rotate(29.25, 400, 400)"></path><path d="M318.0000001564026 404.93344086241024C320.7333335731506 401.17510741438167 328.9333338233948 382.7216901845614 334.4000006568909 382.38344017423884C339.866667490387 382.04519016391623 345.3333343238831 401.0623574109408 350.8000011573792 402.9039408004748C356.26666799087525 404.7455241900088 361.73333482437135 392.9819404976794 367.20000165786746 393.4329405114428C372.66666849136357 393.88394052520624 378.1333353248597 406.47435757610197 383.6000021583558 405.6099408830554C389.0666689918519 404.7455241900088 394.533335825348 386.25452362570826 400.0000026588441 388.2464403531634C405.4666694923402 390.2383570806185 410.9333363258363 416.20844120649593 416.4000031593324 417.5614412477862C421.86666999282846 418.91444128907654 427.33333682632457 396.77785728018824 432.8000036598207 396.3644406009051C438.2666704933168 395.951023921622 443.7333373268129 414.9306078341662 449.200004160309 415.08094117208736C454.66667099380504 415.2312745100085 460.13333782730115 397.79260731115596 465.60000466079725 397.26644062843195C471.06667149429336 396.74027394570794 479.2666717445376 409.4810243345248 482.00000516128557 411.92394107574336 " transform="rotate(26, 400, 400)"></path><path d="M328.25000013685224 404.31676075460894C330.6416668765068 401.02821898758395 337.81666709547045 384.88147891149123 342.60000057477953 384.58551015245894C347.3833340540886 384.2895413934267 352.1666675333977 400.9295627345732 356.9500010127068 402.54094820041547C361.73333449201584 404.15233366625773 366.516667971325 393.85919793546947 371.30000145063406 394.25382294751245C376.08333492994313 394.6484479595555 380.86666840925227 405.6650628790892 385.6500018885613 404.90869827267346C390.4333353678704 404.15233366625773 395.21666884717945 387.9727081724947 400.0000023264886 389.71563530901796C404.78333580579766 391.4585624455412 409.56666928510674 414.18238605568393 414.3500027644158 415.36626109181293C419.1333362437249 416.5501361279419 423.91666972303403 397.1806251201647 428.7000032023431 396.818885525792C433.4833366816522 396.4571459314192 438.26667016096127 413.06428185489546 443.05000364027035 413.19582352557643C447.8333371195795 413.32736519625746 452.6166705988885 398.06853139726144 457.40000407819764 397.60813554987794C462.1833375575067 397.14773970249445 469.3583377764703 408.2958962927092 471.7500045161249 410.43344844127546 " transform="rotate(22.75, 400, 400)"></path><path d="M338.4999963026047 403.7000806468077C340.5499963651657 400.88133056078624 346.6999965528488 387.04126763842106 350.7999966779709 386.7875801306791C354.89999680309296 386.5338926229372 358.99999692821507 400.7967680582056 363.0999970533371 402.1779556003561C367.19999717845917 403.5591431425066 371.2999973035813 394.73645537325956 375.3999974287034 395.0747053835821C379.49999755382544 395.41295539390467 383.5999976789475 404.8557681820765 387.6999978040696 404.2074556622915C391.79999792919165 403.5591431425066 395.8999980543137 389.6908927192812 399.9999981794358 391.1848302648725C404.09999830455786 392.6787678104639 408.1999984296799 412.15633090487194 412.299998554802 413.17108093583965C416.3999986799241 414.1858309668074 420.4999988050462 397.58339296014117 424.5999989301682 397.2733304506788C428.69999905529033 396.9632679412165 432.7999991804124 411.19795587562464 436.8999993055345 411.3107058790655C440.99999943065654 411.4234558825064 445.0999995557786 398.34445548336697 449.1999996809007 397.94983047132393C453.29999980602275 397.55520545928096 459.4499999937059 407.1107682508936 461.5000000562669 408.9429558068075 " transform="rotate(19.5, 400, 400)"></path><path d="M348.7499962830544 403.0834005390064C350.45832966852186 400.7344421339885 355.5833298249245 389.20105636535084 358.99999659585956 388.98965010889924C362.41666336679464 388.77824385244764 365.83333013772966 400.663973381838 369.24999690866474 401.81496300029676C372.66666367959976 402.9659526187555 376.08333045053485 395.6137128110496 379.4999972214699 395.8955878196518C382.916663992405 396.1774628282539 386.33333076334003 404.0464734850637 389.7499975342751 403.5062130519096C393.16666430521013 402.9659526187555 396.5833310761452 391.40907726606764 399.9999978470803 392.65402522072714C403.4166646180154 393.8989731753866 406.8333313889504 410.13027575405994 410.2499981598855 410.9759007798664C413.6666649308205 411.8215258056728 417.0833317017556 397.98616080011766 420.49999847269066 397.72777537556567C423.91666524362574 397.46938995101374 427.33333201456077 409.3316298963539 430.74999878549585 409.4255882325546C434.1666655564309 409.51954656875535 437.58333232736595 398.62037956947245 440.99999909830103 398.29152539277C444.4166658692361 397.96267121606746 449.54166602563873 405.925640209078 451.2499994111062 407.4524631723396 " transform="rotate(16.25, 400, 400)"></path><path d="M358.99999626350404 402.4667204312051C360.36666297187804 400.5875537071908 364.46666309700015 391.36084509228067 367.19999651374815 391.1917200871194C369.93332993049626 391.0225950819581 372.66666334724425 400.5311787054704 375.39999676399236 401.4519704002374C378.13333018074036 402.3727620950044 380.8666635974884 396.4909702488397 383.59999701423646 396.7164702557214C386.3333304309845 396.94197026260315 389.06666384773257 403.237178788051 391.7999972644806 402.8049704415277C394.5333306812287 402.3727620950044 397.26666409797673 393.1272618128541 399.9999975147248 394.1232201765817C402.73333093147284 395.11917854030924 405.4666643482209 408.104220603248 408.19999776496894 408.7807206238931C410.933331181717 409.45722064453827 413.666664598465 398.38892864009415 416.3999980152131 398.18222030045257C419.1333314319611 397.975511960811 421.8666648487092 407.46530391708313 424.5999982654572 407.5404705860437C427.33333168220526 407.61563725500423 430.0666650989533 398.896303655578 432.79999851570136 398.633220314216C435.5333319324494 398.37013697285397 439.6333320575715 404.7405121672624 440.9999987659455 405.9619705378717 " transform="rotate(13, 400, 400)"></path><path d="M369.2499962439537 401.85004032340385C370.27499627523423 400.4406652803931 373.34999636907577 393.5206338192105 375.39999643163685 393.39379006533954C377.4499964941979 393.2669463114686 379.4999965567589 400.3983840291028 381.5499966193199 401.08897780017804C383.59999668188095 401.7795715712533 385.649996744442 397.3682276866298 387.69999680700306 397.53735269179106C389.7499968695641 397.70647769695233 391.7999969321251 402.4278840910382 393.8499969946862 402.10372783114576C395.8999970572472 401.7795715712533 397.94999711980824 394.8454463596406 399.99999718236927 395.59241513243626C402.0499972449303 396.33938390523195 404.0999973074913 406.078165452436 406.14999737005235 406.5855404679198C408.19999743261343 407.09291548340366 410.24999749517445 398.7916964800706 412.2999975577355 398.6366652253394C414.34999762029656 398.48163397060824 416.3999976828576 405.5989779378123 418.4499977454186 405.65535293953275C420.49999780797964 405.7117279412532 422.54999787054066 399.17222774168346 424.5999979331017 398.97491523566197C426.6499979956627 398.7776027296405 429.7249980895043 403.5553841254468 430.7499981207848 404.47147790340375 " transform="rotate(9.75, 400, 400)"></path><path d="M379.50000003910066 401.23336021560254C380.1833333932876 400.29377685359543 382.2333334558487 395.68042254614033 383.6000001642227 395.5958600435597C384.96666687259676 395.51129754097906 386.33333358097076 400.2655893527352 387.7000002893448 400.7259852001187C389.0666669977188 401.1863810475022 390.43333370609287 398.2454851244198 391.80000041446687 398.3582351278607C393.16666712284086 398.4709851313016 394.5333338312149 401.6185893940255 395.900000539589 401.4024852207638C397.26666724796297 401.1863810475022 398.63333395633697 396.5636309064271 400.000000664711 397.0616100882909C401.3666673730851 397.5595892701546 402.7333340814591 404.052110301624 404.1000007898331 404.39036031194655C405.46666749820713 404.7286103222691 406.8333342065811 399.1944643200471 408.2000009149552 399.09111015022626C409.5666676233292 398.9877559804055 410.93333433170324 403.73265195854157 412.30000104007723 403.77023529302187C413.66666774845123 403.8078186275021 415.0333344568253 399.448151827789 416.40000116519934 399.316610157108C417.76666787357334 399.185068486427 419.8166679361344 402.3702560836312 420.5000012903214 402.98098526893585 " transform="rotate(6.5, 400, 400)"></path><path d="M389.7500000195503 400.6166801078013C390.0916666966438 400.1468884267977 391.1166667279243 397.84021127307017 391.80000008211135 397.79793002177985C392.4833334362984 397.75564877048953 393.16666679048535 400.1327946763676 393.8500001446724 400.36299260005933C394.5333334988594 400.5931905237511 395.21666685304643 399.1227425622099 395.90000020723346 399.17911756393033C396.58333356142043 399.23549256565076 397.26666691560746 400.8092946970128 397.9500002697945 400.70124261038194C398.63333362398146 400.5931905237511 399.3166669781685 398.28181545321354 400.0000003323555 398.53080504414544C400.68333368654254 398.77979463507734 401.36666704072957 402.026055150812 402.05000039491654 402.1951801559733C402.73333374910356 402.36430516113455 403.4166671032906 399.5972321600235 404.10000045747756 399.54555507511316C404.7833338116646 399.49387799020275 405.4666671658516 401.86632597927075 406.1500005200386 401.88511764651093C406.8333338742256 401.90390931375106 407.51666722841264 399.72407591389447 408.20000058259967 399.658305078554C408.8833339367867 399.5925342432135 409.9083339680672 401.1851280418156 410.2500006451607 401.4904926344679 " transform="rotate(3.25, 400, 400)"></path></g></svg>