<svg xmlns="http://www.w3.org/2000/svg" xmlns:xlink="http://www.w3.org/1999/xlink" viewBox="0,0,256,256" width="25px" height="25px" fill-rule="nonzero"><g fill-opacity="0.6" fill="#000000" fill-rule="nonzero" stroke="none" stroke-width="1" stroke-linecap="butt" stroke-linejoin="miter" stroke-miterlimit="10" stroke-dasharray="" stroke-dashoffset="0" font-family="none" font-weight="none" font-size="none" text-anchor="none" style="mix-blend-mode: normal"><g transform="scale(5.33333,5.33333)"><path d="M13.5,4c-3.01977,0 -5.5,2.48023 -5.5,5.5v26.5v1.5v1c0,3.01977 2.48023,5.5 5.5,5.5h26c0.54095,0.00765 1.04412,-0.27656 1.31683,-0.74381c0.27271,-0.46725 0.27271,-1.04514 0,-1.51238c-0.27271,-0.46725 -0.77588,-0.75146 -1.31683,-0.74381h-26c-1.22676,0 -2.22276,-0.84765 -2.44922,-2h28.44922c0.82839,-0.00008 1.49992,-0.67161 1.5,-1.5v-28c0,-3.01977 -2.48023,-5.5 -5.5,-5.5zM13.5,7h22c1.39823,0 2.5,1.10177 2.5,2.5v26.5h-27v-26.5c0,-1.39823 1.10177,-2.5 2.5,-2.5zM24.5,11c-2.4675,0 -4.5,2.0325 -4.5,4.5c0,2.4675 2.0325,4.5 4.5,4.5c2.4675,0 4.5,-2.0325 4.5,-4.5c0,-2.4675 -2.0325,-4.5 -4.5,-4.5zM24.5,14c0.8465,0 1.5,0.6535 1.5,1.5c0,0.8465 -0.6535,1.5 -1.5,1.5c-0.8465,0 -1.5,-0.6535 -1.5,-1.5c0,-0.8465 0.6535,-1.5 1.5,-1.5zM19.5,22c-1.36359,0 -2.5,1.13641 -2.5,2.5v2.5c0,1.66127 1.12935,2.97077 2.50195,3.77148c1.37261,0.80071 3.10463,1.22852 4.99805,1.22852c1.89342,0 3.62544,-0.4278 4.99805,-1.22852c1.37261,-0.80071 2.50195,-2.11021 2.50195,-3.77148v-2.5c0,-1.36359 -1.13641,-2.5 -2.5,-2.5zM20,25h9v2c0,0.27173 -0.21478,0.71365 -1.01367,1.17969c-0.79889,0.46604 -2.06575,0.82031 -3.48633,0.82031c-1.42058,0 -2.68744,-0.35428 -3.48633,-0.82031c-0.79889,-0.46604 -1.01367,-0.90796 -1.01367,-1.17969z"></path></g></g></svg>