<svg xmlns="http://www.w3.org/2000/svg" xmlns:xlink="http://www.w3.org/1999/xlink" viewBox="0,0,256,256" width="25px" height="25px" fill-rule="nonzero"><g fill="#ba68c8" fill-rule="nonzero" stroke="none" stroke-width="1" stroke-linecap="butt" stroke-linejoin="miter" stroke-miterlimit="10" stroke-dasharray="" stroke-dashoffset="0" font-family="none" font-weight="none" font-size="none" text-anchor="none" style="mix-blend-mode: normal"><g transform="scale(5.33333,5.33333)"><path d="M13.5,4c-3.033,0 -5.5,2.467 -5.5,5.5v27.5v0.5v1c0,3.01977 2.48023,5.5 5.5,5.5h26c0.54095,0.00765 1.04412,-0.27656 1.31683,-0.74381c0.27271,-0.46725 0.27271,-1.04514 0,-1.51238c-0.27271,-0.46725 -0.77588,-0.75146 -1.31683,-0.74381h-26c-1.22676,0 -2.22276,-0.84765 -2.44922,-2h28.44922c0.829,0 1.5,-0.671 1.5,-1.5v-28c0,-3.033 -2.467,-5.5 -5.5,-5.5zM24.5,12c1.93,0 3.5,1.57 3.5,3.5c0,1.93 -1.57,3.5 -3.5,3.5c-1.93,0 -3.5,-1.57 -3.5,-3.5c0,-1.93 1.57,-3.5 3.5,-3.5zM19.5,23h10c0.827,0 1.5,0.673 1.5,1.5v2.5c0,2.206 -2.916,4 -6.5,4c-3.584,0 -6.5,-1.794 -6.5,-4v-2.5c0,-0.827 0.673,-1.5 1.5,-1.5z"></path></g></g></svg>